<svg width="42" height="42" viewBox="0 0 42 42" fill="none" xmlns="http://www.w3.org/2000/svg">
<path d="M32.6331 0.878906H35.4308C37.3654 0.878906 39.4937 2.23316 40.2675 3.78088C41.0414 5.32861 41.2797 6.68286 40.3146 9.58484L28.7673 34.7353C28.4448 35.7026 27.413 38.0242 25.8653 39.5719C24.3176 41.1197 21.996 41.5066 21.0287 41.5066C20.0613 41.5066 17.63 41.1197 16.0822 39.5719C14.5345 38.0242 13.5027 35.7026 13.1803 34.7353L1.6329 9.58484C0.667809 6.68286 0.906148 5.32861 1.68001 3.78088C2.45387 2.23316 4.58213 0.878906 6.51678 0.878906H9.31444C6.41246 0.878906 4.47781 2.42663 4.47781 4.74821C4.47781 7.06979 5.44513 8.61751 6.41246 10.5522L16.0857 32.8007C16.4082 33.768 18.2465 37.8961 19.0204 38.67C19.7942 39.4438 20.3829 39.6373 21.0267 39.6373C21.6704 39.6373 22.1533 39.4438 22.9272 38.67C23.701 37.8961 25.5394 33.768 25.8618 32.8007L35.5351 10.5522C36.5024 8.61751 37.4697 7.06979 37.4697 4.74821C37.4697 2.42663 35.5351 0.878906 32.6331 0.878906ZM32.6331 0.878906H26C24.3517 0.878906 22.8241 1.33927 22 2L20.4492 2.99707M9.31444 0.880859H14.42C16.1474 0.880859 18.1759 1.33927 19 2L20.4492 2.99707M20.4492 2.99707L20.5 11.5M20.4492 2.99707C19.5 2.5 17.1082 2 15.9082 2H7.5C6.3 2 5.16667 2.66667 5 3M20.4492 2.99707C21.5 2.5 23.8 2 25 2H34.3812C35.5812 2 36.8709 2.66667 37.0375 3M20.5 11.5C20.5 13.4229 18.3411 18.1765 16.032 20.484M20.5 11.5C20.5 13.4229 22.6909 18.1765 25 20.484M13.889 23.8149L19 37.5C19.5 38.5 20.2 39 21 39C21.8 39 22.5 38.5 23 37.5L27.9031 23.96M12.6941 25C13.7808 23.7172 16.0454 21.6611 20.392 21.6611C24.7385 21.6611 27.8046 23.7172 29.2534 25C28.1668 22.9474 25.6079 19.3519 20.392 19.3519C15.176 19.3519 13.4186 22.9474 12.6941 25Z" stroke="white" stroke-width="0.5"/>
</svg>
