<?xml version="1.0" encoding="UTF-8" standalone="no"?>
<svg
   viewBox="0 0 685.23 256.62"
   version="1.1"
   id="svg62"
   sodipodi:docname="logo.svg"
   inkscape:version="1.2 (dc2aedaf03, 2022-05-15)"
   xmlns:inkscape="http://www.inkscape.org/namespaces/inkscape"
   xmlns:sodipodi="http://sodipodi.sourceforge.net/DTD/sodipodi-0.dtd"
   xmlns="http://www.w3.org/2000/svg"
   xmlns:svg="http://www.w3.org/2000/svg">
  <defs
     id="defs66" />
  <sodipodi:namedview
     id="namedview64"
     pagecolor="#ffffff"
     bordercolor="#000000"
     borderopacity="0.25"
     inkscape:showpageshadow="2"
     inkscape:pageopacity="0.0"
     inkscape:pagecheckerboard="0"
     inkscape:deskcolor="#d1d1d1"
     showgrid="false"
     inkscape:zoom="1.9672227"
     inkscape:cx="342.86916"
     inkscape:cy="128.09937"
     inkscape:window-width="3840"
     inkscape:window-height="2107"
     inkscape:window-x="-8"
     inkscape:window-y="-8"
     inkscape:window-maximized="1"
     inkscape:current-layer="svg62" />
  <g
     transform="translate(-78.33 -169.33)"
     id="g60">
    <g
       fill="#2b3239"
       id="g36" />
    <path
       d="m218.76 319.53c0 3.24-1.9 5.25-4.92 5.25s-4.92-2-4.92-5.25v-70.4c0-3.24 1.9-5.25 4.92-5.25s4.92 2 4.92 5.25z"
       fill="#6aaf08"
       id="path38" />
    <path
       d="m252.74 319.53c0 3.24-1.9 5.25-4.92 5.25s-4.92-2-4.92-5.25v-69.85c0-3.91 1.34-5.81 4.47-5.81 2.91 0 4.25 1.23 6.93 5.14l40.23 57.78h.22v-57.66c0-3.24 1.9-5.25 4.92-5.25s4.92 2 4.92 5.25v69.87c0 3.91-1.34 5.81-4.47 5.81-2.91 0-4.25-1.23-6.93-5.14l-40.19-57.8h-.22z"
       fill="#6aaf08"
       id="path40" />
    <path
       d="m338.45 319.53c0 3.24-1.9 5.25-4.92 5.25s-4.92-2-4.92-5.25v-70.4c0-3.24 1.9-5.25 4.92-5.25s4.92 2 4.92 5.25z"
       fill="#6aaf08"
       id="path42" />
    <path
       d="m372.42 319.53c0 3.24-1.9 5.25-4.92 5.25s-4.92-2-4.92-5.25v-69.62c0-3 1.56-5.36 5.25-5.36h27.94c2.79 0 4.81 1.45 4.81 4.58s-2 4.58-4.81 4.58h-23.35v26h20.68c2.79 0 4.81 1.45 4.81 4.58s-2 4.58-4.81 4.58h-20.68z"
       fill="#2b3239"
       id="path44" />
    <path
       d="m429.08 315h23.69c2.79 0 4.81 1.45 4.81 4.58s-2 4.58-4.81 4.58h-28.27c-3.69 0-5.25-2.35-5.25-5.36v-68.89c0-3 1.56-5.36 5.25-5.36h28.27c2.79 0 4.81 1.45 4.81 4.58s-2 4.58-4.81 4.58h-23.69v26h21.57c2.79 0 4.81 1.45 4.81 4.58s-2 4.58-4.81 4.58h-21.57z"
       fill="#2b3239"
       id="path46" />
    <path
       d="m524.74 324.79a5.83 5.83 0 0 1 -4.47-2.24l-30.4-33.3v30.29c0 3.24-1.9 5.25-4.92 5.25s-4.92-2-4.92-5.25v-69.63c0-3 1.56-5.36 5.25-5.36h18.22c12.52 0 24.36 8.49 24.36 21.46 0 16.09-9.84 22.24-21.68 22.58l-4.25.11 25.37 27.83a6 6 0 0 1 1.9 4.47c.01 2.11-2 3.79-4.46 3.79zm-21.68-71.79h-13.18v28.28h13.41c10.28 0 14.75-4.36 14.75-14.64-.04-7.34-5.81-13.64-14.98-13.64z"
       fill="#2b3239"
       id="path48" />
    <path
       d="m555.81 320.54c-.45 3.46-2.68 4.25-5.25 4.25-3 0-4.58-2-4.58-5a28.22 28.22 0 0 1 .56-4.47l10.84-63.93c.89-5.59 4.14-7.49 7.71-7.49 3.91 0 6 1.45 7.15 5.14l17 58.23h.22l17-58.23c1.12-3.69 3.24-5.14 7.15-5.14 3.58 0 6.82 1.9 7.71 7.49l10.84 63.93a28.22 28.22 0 0 1 .56 4.47c0 3-1.56 5-4.58 5-2.57 0-4.81-.78-5.25-4.25l-9.28-63.93h-.22l-19 64.15c-1 3.24-2.79 4-5 4s-4-.78-5-4l-19-64.15h-.22z"
       fill="#2b3239"
       id="path50" />
    <path
       d="m663.43 315h23.69c2.79 0 4.81 1.45 4.81 4.58s-2 4.58-4.81 4.58h-28.27c-3.69 0-5.25-2.35-5.25-5.36v-68.89c0-3 1.56-5.36 5.25-5.36h28.27c2.79 0 4.81 1.45 4.81 4.58s-2 4.58-4.81 4.58h-23.69v26h21.57c2.79 0 4.81 1.45 4.81 4.58s-2 4.58-4.81 4.58h-21.57z"
       fill="#2b3239"
       id="path52" />
    <path
       d="m759.09 324.79a5.83 5.83 0 0 1 -4.47-2.24l-30.4-33.3v30.29c0 3.24-1.9 5.25-4.92 5.25s-4.92-2-4.92-5.25v-69.63c0-3 1.56-5.36 5.25-5.36h18.22c12.52 0 24.36 8.49 24.36 21.46 0 16.09-9.84 22.24-21.68 22.58l-4.25.11 25.37 27.83a6 6 0 0 1 1.9 4.47c.01 2.11-2 3.79-4.46 3.79zm-21.68-71.79h-13.19v28.28h13.41c10.28 0 14.75-4.36 14.75-14.64 0-7.34-5.81-13.64-14.97-13.64z"
       fill="#2b3239"
       id="path54" />
    <path
       d="m157.23 169.41c.19-.09.21-.12 0 0z"
       fill="#6aaf08"
       id="path56" />
    <path
       d="m157.25 169.44c-2 1.44-27.13 18-42.28 39.75-15.37 22.06-28.82 39.09-34.43 69.22-8 43.22 7.78 76.43 17.37 90.16.25-33.79 4.06-70 9.31-93 8.59-37.74 15.84-45.23 36.3-81.61a67.37 67.37 0 0 1 -3.27 15.94l-.5 1.59c-5.89 14-11 25.4-15.24 37.2l17.09 58.58h.22l17-58.23c1.12-3.69 3.24-5.14 7.15-5.14 3.58 0 6.82 1.9 7.71 7.49l10.84 63.93a28.22 28.22 0 0 1 .56 4.47c0 3-1.57 5-4.58 5-2.57 0-4.81-.78-5.25-4.25l-9.28-63.93h-.22l-19 64.15c-1 3.24-2.79 4-5 4s-4-.78-5-4l-17-57.31c-1.37 4.79-2.64 9.8-3.78 15.23-6.56 31.18-9.23 60.3-8.63 84.86 0 5.6.13 11.19.27 16.79.28 11.18.66 22.36.45 33.52q-.11 6.07-.31 12.11c3.56-.21 9.05-.39 12.61-.59q-.59-6.27-1-12.53a244 244 0 0 1 -2.84-36.07c0-.44 0-.88-.05-1.32 21.83-2.62 65.56-7.49 80.18-58.7 15.98-56.32-38.54-145.89-39.4-147.31z"
       fill="#6aaf08"
       id="path58" />
  </g>
</svg>
